<?xml version="1.0" encoding="UTF-8"?>
<svg version="1.1" xmlns="http://www.w3.org/2000/svg" width="2000" height="2000">
<path d="M0 0 C660 0 1320 0 2000 0 C2000 660 2000 1320 2000 2000 C1340 2000 680 2000 0 2000 C0 1340 0 680 0 0 Z " fill="#FEFEFE" transform="translate(0,0)"/>
<path d="M0 0 C58.74 0 117.48 0 178 0 C178 4.62 178 9.24 178 14 C123.88 14 69.76 14 14 14 C14 129.5 14 245 14 364 C74.72 364 135.44 364 198 364 C198 291.4 198 218.8 198 144 C404.25 144 610.5 144 823 144 C823 216.6 823 289.2 823 364 C1009.78 364 1196.56 364 1389 364 C1389 248.5 1389 133 1389 14 C1379.43 14 1369.86 14 1360 14 C1360 9.71 1360 5.42 1360 1 C1373.86 1 1387.72 1 1402 1 C1402 125.41 1402 249.82 1402 378 C1210.6 378 1019.2 378 822 378 C822 426.51 822 475.02 822 525 C616.41 525 410.82 525 199 525 C199 476.49 199 427.98 199 378 C133.33 378 67.66 378 0 378 C0 253.26 0 128.52 0 0 Z " fill="#0375DA" transform="translate(299,895)"/>
<path d="M0 0 C205.59 0 411.18 0 623 0 C623 48.51 623 97.02 623 147 C417.41 147 211.82 147 0 147 C0 98.49 0 49.98 0 0 Z " fill="#0073DA" transform="translate(498,1273)"/>
<path d="M0 0 C58.74 0 117.48 0 178 0 C178 4.62 178 9.24 178 14 C123.55 14 69.1 14 13 14 C13 129.83 13 245.66 13 365 C467.08 365 921.16 365 1389 365 C1389 249.17 1389 133.34 1389 14 C1379.43 14 1369.86 14 1360 14 C1360 9.71 1360 5.42 1360 1 C1373.86 1 1387.72 1 1402 1 C1402 125.41 1402 249.82 1402 378 C939.34 378 476.68 378 0 378 C0 253.26 0 128.52 0 0 Z " fill="#414151" transform="translate(299,895)"/>
<path d="M0 0 C205.59 0 411.18 0 623 0 C623 15.18 623 30.36 623 46 C417.41 46 211.82 46 0 46 C0 30.82 0 15.64 0 0 Z " fill="#103ea8" transform="translate(498,704)"/>
<path d="M0 0 C1.8552832 -0.00483398 1.8552832 -0.00483398 3.74804688 -0.00976562 C14.23899285 0.0512605 23.80407493 1.04806222 33.375 5.5 C34.0546582 5.80969727 34.73431641 6.11939453 35.43457031 6.43847656 C60.49668569 18.06814646 77.76528202 37.37617025 87.4375 63.3125 C94.50808636 84.82513511 91.39554713 109.46231557 81.61157227 129.54638672 C77.79802997 136.85638391 72.98509876 143.22834592 67.4375 149.3125 C66.76332031 150.07949219 66.08914063 150.84648438 65.39453125 151.63671875 C50.61488341 167.52553341 28.21969198 177.72402174 6.58203125 178.54296875 C-19.61504486 179.13315575 -42.03175518 171.5757871 -61.33618164 153.51171875 C-76.92768881 138.45393773 -87.12348909 118.12158797 -87.80078125 96.28515625 C-88.25164314 68.45449833 -81.45784814 46.5583733 -62.17578125 25.8828125 C-54.27812945 18.11501746 -45.94169181 12.11327624 -35.9375 7.3125 C-35.18678223 6.9508374 -34.43606445 6.5891748 -33.66259766 6.21655273 C-22.59478058 1.18626926 -12.08571219 -0.15794187 0 0 Z " fill="#424252" transform="translate(1301.5625,830.6875)"/>
<path d="M0 0 C4.68645828 2.9230588 8.83832523 6.38030511 13 10 C13.54156738 10.46857422 14.08313477 10.93714844 14.64111328 11.41992188 C20.89334482 16.87903049 26.73837 22.56640601 32 29 C32.64839844 29.77214844 33.29679687 30.54429687 33.96484375 31.33984375 C37.52720697 35.62369826 40.98378287 39.95571561 44.32421875 44.4140625 C44.90091309 45.18113525 45.47760742 45.94820801 46.07177734 46.73852539 C47.21603868 48.26618649 48.35331672 49.79910786 49.48291016 51.33764648 C50.2744751 52.39447632 50.2744751 52.39447632 51.08203125 53.47265625 C51.78162964 54.42023804 51.78162964 54.42023804 52.49536133 55.38696289 C55.27929628 58.37146041 58.45502803 59.24314585 62.40698242 59.80615234 C63.27276413 59.93323578 64.13854584 60.06031921 65.03056335 60.19125366 C65.96278214 60.32149933 66.89500092 60.451745 67.85546875 60.5859375 C68.83050858 60.72899323 69.8055484 60.87204895 70.81013489 61.0194397 C74.96658752 61.62916567 79.1252316 62.22323541 83.28393555 62.81738281 C99.66094571 65.17018415 115.45512076 68.13377452 131.23828125 73.18359375 C134.51082394 74.15100736 137.60858749 74.68451977 141 75 C140.43732422 74.00033203 140.43732422 74.00033203 139.86328125 72.98046875 C133.08901407 60.77996237 125.61484527 47.23981653 125 33 C124.90525391 31.33904297 124.90525391 31.33904297 124.80859375 29.64453125 C124.57786557 22.58127174 124.43079468 17.58458428 129 12 C132.3444052 9.3475407 135.8631507 9.57205007 140 10 C147.91631772 13.62831229 152.89665214 22.54770373 156.11328125 30.37890625 C157.89845101 35.65577369 159.12592254 41.07800013 160.40087891 46.49511719 C161.82548265 52.45128444 163.35146581 58.38336302 164.85668945 64.31958008 C165.94149955 68.62814104 167.01799035 72.92480146 167.875 77.28515625 C168.101875 78.42855469 168.32875 79.57195312 168.5625 80.75 C168.72878906 81.69359375 168.89507813 82.6371875 169.06640625 83.609375 C170.95126514 88.43587558 175.91538289 90.63938591 180.359375 92.84765625 C181.38417969 93.36465088 182.40898438 93.88164551 183.46484375 94.41430664 C184.54894531 94.95821045 185.63304687 95.50211426 186.75 96.0625 C197.29940614 101.45784142 207.25588041 107.27315507 217 114 C217.71091797 114.4832373 218.42183594 114.96647461 219.15429688 115.46435547 C227.92039659 121.42941845 236.23503468 127.68660418 244.23828125 134.640625 C247.37198368 137.31779086 250.5858377 139.69742543 254 142 C252.6924091 136.29531422 250.95346013 131.03899166 248.75 125.625 C246.22939691 119.28131617 243.85728104 112.90999779 241.6875 106.4375 C241.44547852 105.72480957 241.20345703 105.01211914 240.95410156 104.27783203 C238.11123704 95.67906902 236.63030259 87.70363849 236.6875 78.625 C236.69241455 77.70396484 236.6973291 76.78292969 236.70239258 75.83398438 C236.84260314 67.69458175 237.52553827 60.71169259 242.125 53.8125 C245.54683988 51.65525312 247.7836522 51.13206392 251.79296875 51.41796875 C255.14416991 52.30173684 256.64862017 53.73352615 258.6640625 56.51171875 C261.62941995 62.03491377 263.34142449 67.98624375 265 74 C265.27457031 74.98685791 265.27457031 74.98685791 265.5546875 75.99365234 C269.86027755 91.86271567 271.87870924 108.24880642 272.7734375 124.640625 C272.8258963 125.59762802 272.8783551 126.55463104 272.93240356 127.54063416 C273.1385714 131.4358376 273.33462297 135.33112127 273.50585938 139.22802734 C274.46493999 160.37297489 280.07571235 168.84477424 295.125 183.375 C297.20352885 185.40340898 299.27845226 187.43540921 301.35128784 189.46963501 C302.6349148 190.72704073 303.9224401 191.98048286 305.21438599 193.2293396 C312.8007369 200.60515833 312.8007369 200.60515833 313.375 204.625 C313.25125 205.40875 313.1275 206.1925 313 207 C310 209 310 209 307.54856873 208.83863831 C304.61797719 207.87429063 303.34626813 206.79901756 301.22290039 204.58178711 C300.17139549 203.5007798 300.17139549 203.5007798 299.09864807 202.39793396 C298.35582077 201.61563919 297.61299347 200.83334442 296.84765625 200.02734375 C295.25088913 198.38974177 293.65387639 196.75237926 292.05664062 195.11523438 C289.55220418 192.52369993 287.05288103 189.92746644 284.55883789 187.32592773 C282.14710432 184.81775332 279.71733714 182.32817113 277.28515625 179.83984375 C276.54435318 179.05552475 275.80355011 178.27120575 275.04029846 177.46311951 C271.05264368 173.27559253 271.05264368 173.27559253 265.75927734 171.37280273 C262.98975076 172.0023297 261.0020701 172.74743799 258.56640625 174.1953125 C257.76058105 174.66122803 256.95475586 175.12714355 256.12451172 175.60717773 C254.85631592 176.35849976 254.85631592 176.35849976 253.5625 177.125 C235.129215 187.60447158 215.68162819 194.07768947 194.3125 194.1875 C193.05050781 194.20167969 191.78851562 194.21585938 190.48828125 194.23046875 C186.1908978 193.94654308 183.29053693 193.20450114 180.125 190.25 C179 188 179 188 178.8125 185.125 C181.13157267 179.02217719 187.044067 176.31671132 192.6875 173.5625 C211.13173068 165.63963295 231.16464225 160.04809397 251 157 C240.2686 137.33730581 211.66237862 122.62779686 192.9375 111.5 C192.27169922 111.10272705 191.60589844 110.7054541 190.91992188 110.29614258 C180.63616615 104.10989274 180.63616615 104.10989274 169 103 C166.05029291 104.05780484 166.05029291 104.05780484 163.1875 105.625 C142.70636617 115.44853025 121.1172348 118.50320022 98.5625 119.9375 C97.357146 120.02414917 97.357146 120.02414917 96.12744141 120.11254883 C91.53782011 120.32134919 88.57257792 119.99194862 85 117 C83.75 113.6875 83.75 113.6875 84 110 C91.24696265 100.00582275 106.84951707 97.89307524 118 95 C118.90008789 94.76571289 119.80017578 94.53142578 120.72753906 94.29003906 C123.46242884 93.58206092 126.19927311 92.88245237 128.9375 92.1875 C129.79577393 91.96843994 130.65404785 91.74937988 131.53833008 91.52368164 C132.33907959 91.32379639 133.1398291 91.12391113 133.96484375 90.91796875 C134.6724585 90.74031982 135.38007324 90.5626709 136.10913086 90.37963867 C138 90 138 90 141 90 C138.48483768 86.22725653 137.05275173 86.13700734 132.75390625 84.9140625 C132.11919907 84.7318515 131.48449188 84.5496405 130.83055115 84.36190796 C128.74476937 83.76926285 126.65433924 83.1958686 124.5625 82.625 C123.8506958 82.42712891 123.1388916 82.22925781 122.40551758 82.02539062 C89.49978163 71.33171329 89.49978163 71.33171329 56.80859375 72.98828125 C54.72293472 74.5340202 52.88342658 76.21270294 51 78 C49.1343956 79.59439319 47.2584541 81.17673267 45.375 82.75 C44.86525635 83.17788818 44.3555127 83.60577637 43.83032227 84.04663086 C28.85518192 96.52321543 8.38622757 113.21241154 -11.4375 115.375 C-15 115 -15 115 -17.9375 112.9375 C-20 110 -20 110 -20.8125 106.8125 C-18.07263626 93.95621632 -2.95298772 85.27820863 7.34033203 78.44677734 C11.84052931 75.54168262 16.39947369 72.74297867 21 70 C18.67094554 68.83547277 17.52013601 68.93277363 14.94018555 69.05419922 C14.10138351 69.09108856 13.26258148 69.12797791 12.39836121 69.16598511 C11.4870192 69.2117569 10.57567719 69.25752869 9.63671875 69.3046875 C8.69375443 69.34812286 7.7507901 69.39155823 6.7792511 69.43630981 C4.7741819 69.52969957 2.76923355 69.62571473 0.7644043 69.72412109 C-2.26164404 69.87250623 -5.28796777 70.01318931 -8.31445312 70.15234375 C-13.05619096 70.37297183 -17.79626232 70.61758345 -22.53619385 70.87390137 C-24.70281625 70.98479001 -26.86868572 71.07359897 -29.03662109 71.15332031 C-38.20284217 71.60155186 -38.20284217 71.60155186 -46 76 C-49.15079103 79.79141449 -51.79279631 83.84507597 -54.4375 88 C-55.84984648 90.16863523 -57.26521204 92.33530726 -58.68359375 94.5 C-59.38572998 95.5720166 -60.08786621 96.6440332 -60.8112793 97.74853516 C-75.12647114 119.01453906 -75.12647114 119.01453906 -85 123 C-88.11734099 122.80516619 -90.5027073 122.2093864 -93.375 121 C-95.65934039 118.18850414 -95.56198646 116.06784126 -95.3671875 112.515625 C-94.04124866 103.43153341 -89.18416094 97.34657862 -83.2421875 90.6640625 C-81.35240062 88.41870596 -80.22511017 86.61231611 -79 84 C-79.65895264 84.30703857 -80.31790527 84.61407715 -80.99682617 84.93041992 C-122.61971838 104.28272072 -122.61971838 104.28272072 -141 105 C-142.17433594 105.0515625 -143.34867188 105.103125 -144.55859375 105.15625 C-153.10552118 105.35954659 -160.28350837 105.18363185 -167.5 100.3125 C-169.67629641 96.95737637 -170.41719438 93.99424989 -170 90 C-166.15280483 83.23424298 -159.19944117 80.28019064 -151.94311523 78.06811523 C-148.6816583 77.25043871 -145.41326084 76.51438024 -142.125 75.8125 C-140.48337891 75.4422168 -140.48337891 75.4422168 -138.80859375 75.06445312 C-122.05522842 71.3469904 -105.11666704 69.11375573 -88 68 C-89.49086764 63.66381633 -92.69145861 62.03688279 -96.4375 59.8125 C-117.39680669 46.80056828 -117.39680669 46.80056828 -120.6875 35.67578125 C-121.45519815 31.52884034 -121.3753254 29.63417051 -119.1875 25.9375 C-114.64181998 23.17443959 -111.18979728 23.21411641 -106 24 C-92.83892913 27.27102639 -81.49234153 35.85210159 -70.5 43.4375 C-67.37442824 45.58269056 -64.24788392 47.72623951 -61.11523438 49.86108398 C-58.9889433 51.32099277 -56.87610001 52.80063409 -54.77539062 54.29711914 C-53.73576172 55.02406982 -52.69613281 55.75102051 -51.625 56.5 C-50.69945312 57.15871094 -49.77390625 57.81742188 -48.8203125 58.49609375 C-44.02338772 61.0540107 -39.39231312 60.65114759 -34.09716797 60.171875 C-31.70193627 59.97557196 -29.31159735 59.87400761 -26.91015625 59.78125 C-17.7359617 59.4656979 -17.7359617 59.4656979 -8.6171875 58.5 C-3.60981719 57.8078365 1.3897392 57.63783403 6.4375 57.4375 C7.96407227 57.37272461 7.96407227 57.37272461 9.52148438 57.30664062 C12.01421028 57.20131418 14.50702338 57.09918328 17 57 C17.33 56.34 17.66 55.68 18 55 C17.43925781 54.76796875 16.87851563 54.5359375 16.30078125 54.296875 C13.41318045 52.66922905 11.4844698 50.63740168 9.1875 48.25 C6.33218044 45.3193201 3.5266607 42.53060616 0.3125 40 C-7.72365252 33.23072329 -13.8009346 22.5625265 -15.4453125 12.19140625 C-15.63583623 7.91732392 -15.39068211 5.63811411 -13.125 1.9375 C-9.00594496 -1.81810901 -5.15603595 -1.64788081 0 0 Z " fill="#444454" transform="translate(1353,620)"/>
<path d="M0 0 C3.84089605 1.92044803 5.74761238 3.52585839 8.703125 6.54296875 C9.60160156 7.45240234 10.50007813 8.36183594 11.42578125 9.29882812 C12.36756931 10.26134531 13.30897355 11.22423819 14.25 12.1875 C16.08606317 14.05842513 17.92456595 15.92695954 19.765625 17.79296875 C20.57805664 18.6233667 21.39048828 19.45376465 22.22753906 20.30932617 C24.27168043 22.29316573 26.31189667 24.13640257 28.47558594 25.9777832 C34.16364931 30.91309296 39.40891355 36.29823021 44.71307373 41.63790894 C46.66256755 43.6003164 48.61529925 45.55945154 50.56884766 47.51782227 C55.41725915 52.37951197 60.26017769 57.24666144 65.10327148 62.11364746 C69.20705418 66.23724942 73.31293967 70.35873626 77.42156982 74.47750854 C79.33342479 76.39578514 81.24221206 78.31707743 83.15087891 80.23852539 C84.3374148 81.42869804 85.5240937 82.61872814 86.7109375 83.80859375 C87.49050812 84.59591385 87.49050812 84.59591385 88.28582764 85.3991394 C92.37835946 89.49224334 96.61367016 93.16196139 101 97 C109.25 105.25 117.5 113.5 126 122 C126.33 83.72 126.66 45.44 127 6 C136.24 6 145.48 6 155 6 C155 65.73 155 125.46 155 187 C151.08601421 185.04300711 148.62615961 182.87016757 145.640625 179.80078125 C145.1325531 179.28750778 144.6244812 178.77423431 144.10101318 178.2454071 C142.47916351 176.60580301 140.8641434 174.95968847 139.25 173.3125 C137.1336727 171.15931964 135.01411706 169.00939621 132.890625 166.86328125 C132.37290527 166.33997223 131.85518555 165.81666321 131.32177734 165.27749634 C128.63566565 162.58079459 125.91292208 159.9797028 123.015625 157.51171875 C116.58250254 152.03155884 110.77992092 145.83296214 104.84521484 139.82470703 C97.6240675 132.44933819 97.6240675 132.44933819 90 125.5 C83.57318587 120.02282958 77.77521568 113.82819858 71.84521484 107.82470703 C66.40481554 102.32298018 60.98087262 96.88594736 55.08691406 91.86425781 C50.21994003 87.51654914 45.70813849 82.76859447 41.125 78.125 C39.06798047 76.04139745 37.00766016 73.96113977 34.9453125 71.8828125 C34.04312988 70.96902832 33.14094727 70.05524414 32.21142578 69.11376953 C30.18662739 66.97050834 30.18662739 66.97050834 28 66 C28 103.95 28 141.9 28 181 C18.76 181 9.52 181 0 181 C0 121.27 0 61.54 0 0 Z " fill="#434353" transform="translate(1433,826)"/>
<path d="M0 0 C9.24 0 18.48 0 28 0 C28 24.42 28 48.84 28 74 C56.38 74 84.76 74 114 74 C114 49.58 114 25.16 114 0 C123.24 0 132.48 0 142 0 C142 57.75 142 115.5 142 175 C132.76 175 123.52 175 114 175 C114 150.58 114 126.16 114 101 C85.62 101 57.24 101 28 101 C28 125.42 28 149.84 28 175 C18.76 175 9.52 175 0 175 C0 117.25 0 59.5 0 0 Z " fill="#424252" transform="translate(950,832)"/>
<path d="M0 0 C11.17448983 9.17973688 19.27244077 23.21886214 22.50390625 37.2265625 C24.31994104 56.71954022 21.91824024 74.21356671 9.4375 89.80859375 C1.62273007 98.87372687 -6.4164681 104.74435031 -17.49609375 109.2265625 C-18.305625 109.58105469 -19.11515625 109.93554688 -19.94921875 110.30078125 C-32.71839974 114.94233937 -49.68173224 112.87695464 -61.9765625 107.78515625 C-69.50566844 103.9808835 -75.59045361 99.21567458 -81.49609375 93.2265625 C-82.14320312 92.58976563 -82.7903125 91.95296875 -83.45703125 91.296875 C-94.01380123 80.18691183 -98.79138019 64.28889057 -98.99609375 49.1640625 C-98.44620307 31.03540833 -91.30602997 15.87493196 -78.49609375 3.2265625 C-77.95597656 2.66453125 -77.41585938 2.1025 -76.859375 1.5234375 C-55.3778615 -19.0382127 -22.77514065 -16.18139883 0 0 Z " fill="#FEFEFE" transform="translate(1340.49609375,869.7734375)"/>
<path d="M0 0 C0.66 0 1.32 0 2 0 C8.08672882 14.28816962 14.17274468 28.57664269 20.25787354 42.86549377 C23.18631713 49.74187193 26.11533694 56.61800421 29.04502869 63.49385071 C38.06579428 84.66661327 47.05886504 105.85058525 55.99612427 127.05874634 C62.14657233 141.65232573 68.3559774 156.21962716 74.6340332 170.75878906 C75.08046677 171.79531616 75.08046677 171.79531616 75.53591919 172.8527832 C76.33081192 174.69832346 77.12761419 176.54304093 77.92456055 178.38769531 C79 181 79 181 79 182 C68.11 182 57.22 182 46 182 C43.8606709 176.4835871 41.72337892 170.96647533 39.59130859 165.44726562 C38.86497388 163.5688698 38.13743851 161.69093779 37.40869141 159.81347656 C36.36306871 157.11904201 35.32173661 154.42298386 34.28125 151.7265625 C33.95314331 150.88380768 33.62503662 150.04105286 33.2869873 149.17276001 C32.98667603 148.39210175 32.68636475 147.61144348 32.37695312 146.80712891 C32.11047974 146.11873932 31.84400635 145.43034973 31.56945801 144.72109985 C31 143 31 143 31 141 C9.55 141 -11.9 141 -34 141 C-34.33 142.65 -34.66 144.3 -35 146 C-36.00012049 148.6449161 -37.03375454 151.24898779 -38.125 153.85546875 C-38.43195801 154.59831619 -38.73891602 155.34116364 -39.05517578 156.10652161 C-40.03254636 158.4686299 -41.01626794 160.82803502 -42 163.1875 C-42.6618583 164.78564171 -43.32332094 166.38394734 -43.984375 167.98242188 C-48.7862891 179.57257821 -48.7862891 179.57257821 -50 182 C-58.91 182 -67.82 182 -77 182 C-73.62789318 170.75964392 -73.62789318 170.75964392 -71.4609375 165.8671875 C-70.97206055 164.7529541 -70.48318359 163.6387207 -69.97949219 162.49072266 C-69.45000977 161.29753418 -68.92052734 160.1043457 -68.375 158.875 C-67.19738687 156.19407815 -66.02454903 153.51107378 -64.8515625 150.828125 C-64.3875 149.76865158 -64.3875 149.76865158 -63.9140625 148.68777466 C-60.12654666 140.02840215 -56.43945199 131.32648801 -52.75 122.625 C-52.02575245 120.91803472 -51.30146832 119.21108497 -50.57714844 117.50415039 C-49.47818102 114.91403556 -48.37934892 112.32386366 -47.28088379 109.73353577 C-44.79270241 103.86627404 -42.30016702 98.00087984 -39.8046875 92.13671875 C-33.83755772 78.11245547 -27.87571575 64.08611444 -21.953125 50.04296875 C-21.52885223 49.03712234 -21.10457947 48.03127594 -20.66744995 46.99494934 C-18.61207809 42.12143951 -16.55810721 37.24734616 -14.50634766 32.37231445 C-11.04283098 24.14931239 -7.56481983 15.9330777 -4.0078125 7.75 C-3.71639374 7.07582031 -3.42497498 6.40164063 -3.12472534 5.70703125 C-1.11855566 1.11855566 -1.11855566 1.11855566 0 0 Z " fill="#424252" transform="translate(694,825)"/>
<path d="M0 0 C-0.61632946 4.95998472 -2.79835629 8.93671966 -5.0625 13.3125 C-5.43955078 14.05306641 -5.81660156 14.79363281 -6.20507812 15.55664062 C-7.13128157 17.37387522 -8.06490629 19.18732404 -9 21 C-13.74949537 20.40631308 -17.61739892 19.02349745 -22 17.125 C-35.44089466 11.55762769 -50.58886517 8.04297281 -64.77734375 12.95703125 C-69.63736635 15.2375691 -72.87161004 18.39841425 -75.9375 22.75 C-77.82283278 28.51690028 -77.91176088 33.81970224 -75.5625 39.4375 C-75.046875 40.283125 -74.53125 41.12875 -74 42 C-73.67 42.99 -73.34 43.98 -73 45 C-71.14880356 46.06704823 -71.14880356 46.06704823 -69 47 C-67.69500824 47.90320732 -66.40008648 48.82106553 -65.11328125 49.75 C-59.19788005 53.73633456 -52.7638381 56.30057314 -46.1875 59 C-9.55927966 74.18104329 -9.55927966 74.18104329 -0.96875 94.36328125 C0.34822469 97.94778897 0.91468916 101.2158548 1 105 C1.03867187 106.24394531 1.07734375 107.48789062 1.1171875 108.76953125 C1.44515962 123.91829758 -1.98190634 136.6591901 -12.73828125 147.96875 C-28.08450991 161.75120061 -46.36236811 163.96878866 -66.15576172 163.19970703 C-80.68313316 162.17967357 -94.45320164 156.51487686 -107.25 149.875 C-108.23540771 149.36984863 -108.23540771 149.36984863 -109.24072266 148.85449219 C-113.87933578 146.36199266 -113.87933578 146.36199266 -115 143 C-114.13549805 140.93115234 -114.13549805 140.93115234 -112.76171875 138.5859375 C-112.02598633 137.32136719 -112.02598633 137.32136719 -111.27539062 136.03125 C-110.75138672 135.1546875 -110.22738281 134.278125 -109.6875 133.375 C-109.17509766 132.49070312 -108.66269531 131.60640625 -108.13476562 130.6953125 C-104.27857652 124.13928826 -104.27857652 124.13928826 -102 123 C-99.48054866 124.33188179 -97.06223879 125.71790989 -94.625 127.1875 C-80.16860787 135.62975941 -63.45100942 140.11276357 -46.7421875 136.24609375 C-44.35819206 135.31655424 -42.20785437 134.28828524 -40 133 C-38.88625 132.38125 -37.7725 131.7625 -36.625 131.125 C-32.78587622 128.01713789 -30.55688002 124.67064007 -29 120 C-28.30187786 111.07108708 -28.30187786 111.07108708 -30.5 102.5625 C-31.325 101.716875 -32.15 100.87125 -33 100 C-33.51304687 99.4534375 -34.02609375 98.906875 -34.5546875 98.34375 C-43.0502217 90.0305234 -54.85631275 86.03468656 -65.625 81.5 C-82.58767621 74.3227881 -97.53112368 66.10912371 -105.1171875 48.390625 C-109.28503407 37.10424401 -107.66868919 23.80664233 -103 13 C-100.95810109 9.38624327 -98.64102709 6.19643622 -96 3 C-95.52304687 2.37609375 -95.04609375 1.7521875 -94.5546875 1.109375 C-72.40296079 -24.63765814 -24.64939652 -17.80012964 0 0 Z " fill="#434352" transform="translate(908,846)"/>
<path d="M0 0 C34.98 0 69.96 0 106 0 C106 8.91 106 17.82 106 27 C80.26 27 54.52 27 28 27 C28 43.17 28 59.34 28 76 C50.44 76 72.88 76 96 76 C96 84.91 96 93.82 96 103 C73.56 103 51.12 103 28 103 C28 126.76 28 150.52 28 175 C18.76 175 9.52 175 0 175 C0 117.25 0 59.5 0 0 Z " fill="#424252" transform="translate(505,832)"/>
<path d="M0 0 C11.13479183 5.84120227 18.98422114 13.83301792 23.53515625 25.7734375 C26.07773767 36.20153641 25.84896002 47.8332412 20.3828125 57.25 C19.95871094 58.01441406 19.53460937 58.77882813 19.09765625 59.56640625 C12.86814275 69.82167778 3.6238123 76.98333967 -8.1015625 79.859375 C-20.16164375 81.73205842 -31.34789329 79.48037803 -41.4921875 72.625 C-49.67767814 66.17907506 -55.52870345 57.53176763 -57.6171875 47.25 C-58.96367931 34.78095546 -57.90485718 23.77646956 -50.3046875 13.4375 C-37.87169232 -1.33985233 -18.38746037 -8.09723025 0 0 Z " fill="#0174DB" transform="translate(821.6171875,1084.75)"/>
<path d="M0 0 C9.24 0 18.48 0 28 0 C28 57.75 28 115.5 28 175 C18.76 175 9.52 175 0 175 C0 117.25 0 59.5 0 0 Z " fill="#424252" transform="translate(1144,832)"/>
<path d="M0 0 C34.34569825 0 34.34569825 0 44.2734375 8.19140625 C49.38709717 13.5480226 51.29437317 19.2284763 51.5 26.5625 C51.0873935 35.80271401 48.87582574 42.62517664 42 49 C37.74193548 52 37.74193548 52 35 52 C35.43755615 52.70906494 35.8751123 53.41812988 36.32592773 54.14868164 C51.02133869 77.97150911 51.02133869 77.97150911 56.5 87.0625 C56.86665771 87.66779541 57.23331543 88.27309082 57.61108398 88.89672852 C60 92.87983793 60 92.87983793 60 94 C54.99616368 94.76320597 54.99616368 94.76320597 52 94 C49.39609728 91.433262 47.87686249 88.34195253 46.1875 85.125 C45.6723584 84.23127686 45.1572168 83.33755371 44.62646484 82.41674805 C42.05090776 77.92987314 39.69903358 73.40853974 37.55859375 68.69921875 C34.25374383 61.62451144 34.25374383 61.62451144 29 56 C21.6893189 53.5993359 14.64431451 54.53670821 7 55 C7 67.87 7 80.74 7 94 C4.69 94 2.38 94 0 94 C0 62.98 0 31.96 0 0 Z " fill="#EEF5FC" transform="translate(917,1076)"/>
<path d="M0 0 C155.43 0 310.86 0 471 0 C471 1.65 471 3.3 471 5 C315.57 5 160.14 5 0 5 C0 3.35 0 1.7 0 0 Z " fill="#4B4B5A" transform="translate(1145,1166)"/>
<path d="M0 0 C8.93461357 7.31320922 16.32254301 18.84650013 17.87890625 30.44140625 C18.80318733 45.61502065 15.66965399 58.0704976 5.56640625 69.81640625 C-3.63986971 79.39032052 -15.14108184 85.63567402 -28.62109375 85.94140625 C-42.48965347 85.38552359 -54.49887476 81.75902889 -64.93359375 72.25390625 C-74.81627439 61.40470428 -78.88455464 48.21422027 -78.46484375 33.69921875 C-77.15068136 21.24454333 -71.38876713 9.61406724 -62.18359375 1.06640625 C-43.01675325 -14.03474081 -19.63844044 -14.43045623 0 0 Z M-63.7734375 12.48046875 C-71.1519927 23.21680124 -72.1164996 33.73786 -71.12109375 46.44140625 C-69.16875315 56.76269733 -62.72694293 66.05438468 -54.43359375 72.37890625 C-44.43092238 78.75120532 -33.16225466 81.07177953 -21.5 78.96875 C-10.65689047 76.14379011 -1.02841201 69.84658928 4.828125 60.24609375 C11.04298121 48.97615165 13.08020689 37.65806689 10.04296875 24.94140625 C5.92796052 14.33628436 -1.01511259 5.74290456 -11.12109375 0.44140625 C-11.90742187 0.02890625 -12.69375 -0.38359375 -13.50390625 -0.80859375 C-31.87712023 -8.89955037 -51.43711712 -2.70798141 -63.7734375 12.48046875 Z " fill="#F4F9FD" transform="translate(835.12109375,1085.55859375)"/>
<path d="M0 0 C19.14 0 38.28 0 58 0 C58 1.98 58 3.96 58 6 C40.84 6 23.68 6 6 6 C6 18.54 6 31.08 6 44 C21.51 44 37.02 44 53 44 C53 45.98 53 47.96 53 50 C37.82 50 22.64 50 7 50 C7 62.54 7 75.08 7 88 C24.49 88 41.98 88 60 88 C60 89.98 60 91.96 60 94 C40.2 94 20.4 94 0 94 C0 62.98 0 31.96 0 0 Z " fill="#F6FAFD" transform="translate(1041,1076)"/>
<path d="M0 0 C3.465 -0.0825 6.93 -0.165 10.5 -0.25 C12.11358398 -0.30462402 12.11358398 -0.30462402 13.75976562 -0.36035156 C21.17007163 -0.4451189 26.48252528 0.83627511 32.05859375 5.8515625 C32.74115234 6.72941406 32.74115234 6.72941406 33.4375 7.625 C33.91058594 8.21539063 34.38367188 8.80578125 34.87109375 9.4140625 C38.31826026 14.2567947 37.37489551 20.29477193 37 26 C35.62920999 32.18474547 31.7250309 36.17014833 26.57421875 39.62890625 C21.4087439 41.61041627 16.59950992 41.31795542 11.125 41.1875 C7.45375 41.125625 3.7825 41.06375 0 41 C0 27.47 0 13.94 0 0 Z " fill="#103ea8" transform="translate(924,1083)"/>
<path d="M0 0 C-0.57344937 2.86724686 -0.8614515 3.8614515 -3 6 C-3.57363281 5.71125 -4.14726563 5.4225 -4.73828125 5.125 C-11.12375233 2.33438441 -16.92674291 1.56362813 -23.8125 1.5 C-25.03030151 1.47292969 -25.03030151 1.47292969 -26.27270508 1.4453125 C-32.89702011 1.51077151 -36.38083512 3.72546207 -41.375 8.0625 C-43.82772328 12.49626901 -44.10192777 17.06527997 -43 22 C-39.78695969 26.70229621 -36.8976847 28.98240709 -31.6875 31.4375 C-31.0886499 31.7255249 -30.4897998 32.0135498 -29.87280273 32.31030273 C-25.85079513 34.22058805 -21.76107698 35.95444189 -17.65649414 37.67797852 C-8.32569183 41.61939122 -1.14692016 45.24410449 3 55 C3.58146039 57.79333025 3.66910392 60.46506048 3.625 63.3125 C3.615896 64.05798096 3.60679199 64.80346191 3.59741211 65.5715332 C3.32084904 72.22276681 1.63292293 77.07156141 -3 82 C-11.4331537 89.53298561 -20.52823703 90.49362373 -31.50390625 90.31640625 C-40.19459683 89.52987448 -47.63164172 85.43920845 -55 81 C-54.34 79.35 -53.68 77.7 -53 76 C-48.59743985 76.91158892 -44.78702281 78.91413651 -40.75390625 80.84375 C-33.4854332 83.89547769 -24.06213123 84.44632321 -16.484375 82.28125 C-11.3085584 79.83162688 -7.18955876 76.49240884 -4.6875 71.25 C-3.54282246 65.83879708 -3.3002218 61.09933459 -5.0625 55.8125 C-10.19150154 48.36717518 -17.17649696 45.28363817 -25.375 42 C-45.48438492 33.88293057 -45.48438492 33.88293057 -50.18359375 25.3359375 C-52.08965111 19.88224229 -52.13015624 14.10015336 -50.1484375 8.6640625 C-39.68462818 -9.91453772 -16.8708338 -6.99151671 0 0 Z " fill="#F3F8FD" transform="translate(578,1081)"/>
<path d="M0 0 C2.20841087 2.20841087 2.83680568 3.76778724 3.95532227 6.66162109 C4.3323378 7.62957611 4.70935333 8.59753113 5.09779358 9.59481812 C5.49993576 10.64376251 5.90207794 11.69270691 6.31640625 12.7734375 C6.73292953 13.84872711 7.14945282 14.92401672 7.57859802 16.03189087 C8.45944963 18.30902825 9.3377211 20.58716509 10.21362305 22.86621094 C11.55512944 26.35582722 12.9047927 29.84220054 14.25585938 33.328125 C15.10985874 35.53887569 15.96338995 37.7498073 16.81640625 39.9609375 C17.22057266 41.00583344 17.62473907 42.05072937 18.04115295 43.12728882 C18.41501633 44.10154816 18.7888797 45.0758075 19.17407227 46.07958984 C19.5033522 46.93515472 19.83263214 47.7907196 20.17189026 48.67221069 C21 51 21 51 22 55 C7.48 55 -7.04 55 -22 55 C-20.0750189 48.58339634 -18.15882399 42.57805651 -15.56640625 36.46484375 C-15.24719711 35.70128067 -14.92798798 34.93771759 -14.59910583 34.15101624 C-13.59158861 31.7445139 -12.57707731 29.34103292 -11.5625 26.9375 C-10.88693032 25.32505385 -10.21179702 23.71242479 -9.53710938 22.09960938 C-6.43517757 14.69786269 -3.30588545 7.31353174 0 0 Z " fill="#FBFBFB" transform="translate(693,887)"/>
<path d="M0 0 C20.13 0 40.26 0 61 0 C61 1.98 61 3.96 61 6 C51.76 6 42.52 6 33 6 C33 35.04 33 64.08 33 94 C31.02 94 29.04 94 27 94 C27 64.96 27 35.92 27 6 C18.09 6 9.18 6 0 6 C0 4.02 0 2.04 0 0 Z " fill="#FAFCFE" transform="translate(639,1076)"/>
<path d="M0 0 C4.94251799 3.43984769 8.03696807 6.86872078 9.13671875 12.95703125 C9.50685087 17.54824459 8.78582302 20.44634948 6.1328125 24.234375 C2.71195774 28.22802405 -0.28648865 30.47783871 -5.6328125 31.16796875 C-11.34010329 31.44991575 -14.86260872 30.82185103 -19.2421875 26.859375 C-23.26828538 21.52751564 -24.90295919 17.57722056 -24.2421875 10.859375 C-22.39113994 6.22310633 -19.86351142 2.83354434 -15.4921875 0.359375 C-10.25197354 -1.82733082 -5.20049648 -2.64554873 0 0 Z " fill="#FBFBFB" transform="translate(1605.2421875,1313.140625)"/>
<path d="M0 0 C4.07941052 2.07679081 6.34863808 3.74830347 8 8 C8.88912078 15.33007715 8.60979208 21.10971012 4 27 C1.08918497 29.39102663 -2.24867847 29.47997855 -5.96875 29.3828125 C-9.7246102 28.67497731 -11.41063007 26.77432493 -14 24 C-16.80027864 19.54501126 -16.65870279 14.09502641 -16 9 C-13.00685192 0.9494638 -8.0945898 -1.13269004 0 0 Z " fill="#4C4C5B" transform="translate(1358,1315)"/>
<path d="M0 0 C9.51181738 5.05670975 12.9182454 15.41017912 16.06860352 25.15014648 C18.93893509 34.58773341 20.39532347 44.11691318 20 54 C16.35039887 50.73022162 13.98881174 46.98908873 11.625 42.75 C11.04008789 41.70513428 11.04008789 41.70513428 10.44335938 40.63916016 C4.48317171 29.68841997 -0.20271188 18.24406965 -0.0625 5.625 C-0.05347656 4.56539062 -0.04445313 3.50578125 -0.03515625 2.4140625 C-0.01775391 1.21910156 -0.01775391 1.21910156 0 0 Z " fill="#F8F8F8" transform="translate(1488,642)"/>
<path d="M0 0 C9.00975644 7.67787941 11.53284399 27.46753709 12.83447266 38.78393555 C13.17558483 43.35071318 13.10153812 47.9235309 13.0625 52.5 C13.05798828 53.51320313 13.05347656 54.52640625 13.04882812 55.5703125 C13.03714593 58.04693827 13.02076582 60.52343657 13 63 C6.9762419 56.9762419 4.58730163 45.0949733 2.1875 37 C1.98084717 36.30704834 1.77419434 35.61409668 1.5612793 34.90014648 C-0.62019557 27.29386905 -1.16140263 20.10083402 -1.125 12.25 C-1.12886719 11.40050781 -1.13273437 10.55101562 -1.13671875 9.67578125 C-1.13478516 8.45181641 -1.13478516 8.45181641 -1.1328125 7.203125 C-1.13168457 6.46739258 -1.13055664 5.73166016 -1.12939453 4.97363281 C-1 3 -1 3 0 0 Z " fill="#F6F6F7" transform="translate(1601,684)"/>
<path d="M0 0 C1.65 0 3.3 0 5 0 C7.83161469 6.9434807 10.47627343 13.93893523 13 21 C17.23762288 13.79785983 17.26867295 8.14984473 16 0 C17.32 0 18.64 0 20 0 C22.64 6.6 25.28 13.2 28 20 C31.33447318 12.52273899 31.33447318 12.52273899 34.25 4.9375 C34.58515625 3.99777344 34.9203125 3.05804687 35.265625 2.08984375 C35.50796875 1.40019531 35.7503125 0.71054688 36 0 C37.65 0 39.3 0 41 0 C38.70145079 7.13368508 36.06902585 14.09424884 33.3125 21.0625 C32.89677734 22.11888672 32.48105469 23.17527344 32.05273438 24.26367188 C31.03723432 26.84327547 30.01961715 29.42202161 29 32 C26.02812846 29.22936765 24.82039225 26.60260756 23.3125 22.8125 C22.87550781 21.72582031 22.43851563 20.63914062 21.98828125 19.51953125 C21.66214844 18.68808594 21.33601563 17.85664062 21 17 C19.01158588 19.98262118 17.46328268 22.97640675 15.875 26.1875 C15.33617187 27.27417969 14.79734375 28.36085938 14.2421875 29.48046875 C13.83226562 30.31191406 13.42234375 31.14335938 13 32 C10.56888561 29.56888561 9.87851778 27.46979393 8.65234375 24.2578125 C8.21212891 23.10925781 7.77191406 21.96070313 7.31835938 20.77734375 C6.86267578 19.57207031 6.40699219 18.36679688 5.9375 17.125 C5.47794922 15.92746094 5.01839844 14.72992187 4.54492188 13.49609375 C0.84292464 3.78718469 0.84292464 3.78718469 0 0 Z " fill="#4F4F5E" transform="translate(1421,1312)"/>
<path d="M0 0 C14.47610849 6.78567585 25.30643611 20.92827688 34.74951172 33.38574219 C36.76237353 35.98414951 38.87960096 38.48890132 41 41 C40.505 41.99 40.505 41.99 40 43 C22.7224578 33.95972679 6.63726246 22.17785933 0 3 C0 2.01 0 1.02 0 0 Z " fill="#F7F7F8" transform="translate(1349,631)"/>
<path d="M0 0 C3.27418868 1.09139623 3.83548146 1.72910317 5.9375 4.3125 C10.93970847 10.23106131 16.4920546 15.55394162 22 21 C22.33 14.07 22.66 7.14 23 0 C24.65 0 26.3 0 28 0 C28 10.89 28 21.78 28 33 C22.79045341 28.53467435 17.89701566 24.07977128 13.0625 19.25 C12.37865234 18.57839844 11.69480469 17.90679688 10.99023438 17.21484375 C10.34505859 16.57160156 9.69988281 15.92835937 9.03515625 15.265625 C8.4512915 14.68586914 7.86742676 14.10611328 7.26586914 13.50878906 C6 12 6 12 6 10 C5.34 10 4.68 10 4 10 C4 17.26 4 24.52 4 32 C2.68 32 1.36 32 0 32 C0 21.44 0 10.88 0 0 Z " fill="#50505F" transform="translate(1211,1312)"/>
<path d="M0 0 C1.65 0 3.3 0 5 0 C5 4.62 5 9.24 5 14 C10.28 14 15.56 14 21 14 C21 9.38 21 4.76 21 0 C22.65 0 24.3 0 26 0 C26 10.56 26 21.12 26 32 C24.35 32 22.7 32 21 32 C21 27.38 21 22.76 21 18 C15.72 18 10.44 18 5 18 C5 22.62 5 27.24 5 32 C3.35 32 1.7 32 0 32 C0 21.44 0 10.88 0 0 Z " fill="#575765" transform="translate(1507,1312)"/>
<path d="M0 0 C4.94251799 3.43984769 8.03696807 6.86872078 9.13671875 12.95703125 C9.50685087 17.54824459 8.78582302 20.44634948 6.1328125 24.234375 C2.71195774 28.22802405 -0.28648865 30.47783871 -5.6328125 31.16796875 C-11.34010329 31.44991575 -14.86260872 30.82185103 -19.2421875 26.859375 C-23.26828538 21.52751564 -24.90295919 17.57722056 -24.2421875 10.859375 C-22.39113994 6.22310633 -19.86351142 2.83354434 -15.4921875 0.359375 C-10.25197354 -1.82733082 -5.20049648 -2.64554873 0 0 Z M-17.2421875 6.859375 C-19.93467149 10.89810099 -19.91424194 14.11450869 -19.2421875 18.859375 C-17.2371787 22.6619779 -15.81532488 24.47728341 -12.2421875 26.859375 C-6.89513956 27.29058854 -3.57756921 27.32768037 0.7578125 23.859375 C4.16427163 20.04777874 4.27011531 17.23056184 4.109375 12.26953125 C3.60228109 8.7931208 2.39314382 7.13858046 -0.2421875 4.859375 C-6.74425694 1.2661261 -11.57392059 2.35052632 -17.2421875 6.859375 Z " fill="#4D4D5C" transform="translate(1605.2421875,1313.140625)"/>
<path d="M0 0 C6.6 0 13.2 0 20 0 C20 1.32 20 2.64 20 4 C14.72 4 9.44 4 4 4 C4 7.3 4 10.6 4 14 C8.95 14 13.9 14 19 14 C19 15.32 19 16.64 19 18 C14.05 18 9.1 18 4 18 C4 21.3 4 24.6 4 28 C9.61 28 15.22 28 21 28 C21 29.32 21 30.64 21 32 C14.07 32 7.14 32 0 32 C0 21.44 0 10.88 0 0 Z " fill="#464655" transform="translate(1279,1312)"/>
<path d="M0 0 C1.32 0 2.64 0 4 0 C4.01458252 0.7113208 4.02916504 1.4226416 4.04418945 2.15551758 C4.11861006 5.37506332 4.21529 8.59356518 4.3125 11.8125 C4.33505859 12.93205078 4.35761719 14.05160156 4.38085938 15.20507812 C4.41630859 16.27822266 4.45175781 17.35136719 4.48828125 18.45703125 C4.51446533 19.44678955 4.54064941 20.43654785 4.56762695 21.45629883 C4.81139559 24.02024004 4.81139559 24.02024004 6.31323242 25.82299805 C9.14804252 27.80108742 11.67115086 27.35666241 15 27 C16.79348587 25.88686485 16.79348587 25.88686485 18 24 C18.50479657 21.3931977 18.50479657 21.3931977 18.51171875 18.45703125 C18.54716797 17.38388672 18.58261719 16.31074219 18.61914062 15.20507812 C18.64169922 14.08552734 18.66425781 12.96597656 18.6875 11.8125 C18.72166016 10.68134766 18.75582031 9.55019531 18.79101562 8.38476562 C18.87356314 5.5899426 18.94269182 2.79543602 19 0 C20.65 0 22.3 0 24 0 C24.08756305 3.70818297 24.14058015 7.41609763 24.1875 11.125 C24.21263672 12.17171875 24.23777344 13.2184375 24.26367188 14.296875 C24.31729092 19.94474725 24.29232627 24.16489282 21 29 C17.23688216 32.42101622 13.27096545 32.56092009 8.37890625 32.4296875 C4.73240999 31.77104285 3.14444857 29.90538193 1 27 C-0.3308911 24.33821779 -0.11268993 22.31260604 -0.09765625 19.3359375 C-0.09443359 18.21445313 -0.09121094 17.09296875 -0.08789062 15.9375 C-0.07951172 14.761875 -0.07113281 13.58625 -0.0625 12.375 C-0.05798828 11.19164062 -0.05347656 10.00828125 -0.04882812 8.7890625 C-0.03701467 5.85932493 -0.02054258 2.92968728 0 0 Z " fill="#515160" transform="translate(1621,1312)"/>
<path d="M0 0 C0.53625 0.53625 1.0725 1.0725 1.625 1.625 C1.625 2.285 1.625 2.945 1.625 3.625 C-13.30832885 9.65139413 -26.28733438 11.99248475 -42.375 11.625 C-42.375 7.625 -42.375 7.625 -40.375 5.625 C-38.0420716 4.96401599 -35.75775683 4.40231923 -33.390625 3.8984375 C-32.6974115 3.74589508 -32.004198 3.59335266 -31.28997803 3.43618774 C-29.82138573 3.11496541 -28.35197518 2.79746488 -26.88183594 2.48339844 C-24.645419 2.00437361 -22.4125462 1.51093877 -20.1796875 1.015625 C-18.75018975 0.70485504 -17.32050755 0.39493211 -15.890625 0.0859375 C-15.22790588 -0.06090485 -14.56518677 -0.20774719 -13.88238525 -0.35903931 C-4.16195282 -2.40955163 -4.16195282 -2.40955163 0 0 Z " fill="#F7F7F7" transform="translate(1239.375,703.375)"/>
<path d="M0 0 C3 1.375 3 1.375 5 4 C6.03126201 8.45568164 5.92376487 12.30409124 3.71484375 16.359375 C1.6586448 19.12791806 -0.5638853 21.5638853 -3 24 C0.3 24.33 3.6 24.66 7 25 C7 26.32 7 27.64 7 29 C0.4 29 -6.2 29 -13 29 C-9.41234972 24.81440801 -5.82164966 20.63533045 -2.19921875 16.48046875 C0.51651806 13.12781647 0.1528912 10.20450806 0 6 C-1.11836224 4.65595225 -1.11836224 4.65595225 -4 4.875 C-6.88163776 4.65595225 -6.88163776 4.65595225 -8 6 C-8.07148199 7.35243917 -8.08399454 8.70834367 -8.0625 10.0625 C-8.041875 11.361875 -8.02125 12.66125 -8 14 C-9.32 14.33 -10.64 14.66 -12 15 C-13.83849947 12.29632431 -13.99703118 10.83374606 -13.9375 7.5 C-13 4 -13 4 -10.9375 1.5625 C-7.11120542 -0.47276308 -4.24213294 -0.80395261 0 0 Z " fill="#4C4C5B" transform="translate(1332,1315)"/>
<path d="M0 0 C2.27734375 1.0234375 2.27734375 1.0234375 4 2 C3.67 3.32 3.34 4.64 3 6 C2.484375 5.835 1.96875 5.67 1.4375 5.5 C-1.73363876 4.84951 -4.77218334 4.9379266 -8 5 C-8.66 6.98 -9.32 8.96 -10 11 C-9.29875 11.268125 -8.5975 11.53625 -7.875 11.8125 C2.09475806 15.93044355 2.09475806 15.93044355 4 19 C4.61582155 23.77261703 4.68107227 25.87270797 2.1875 30 C-2.36773047 32.85818382 -6.74527376 32.9397424 -12 32 C-14.33984375 30.46875 -14.33984375 30.46875 -16 29 C-15.505 27.515 -15.505 27.515 -15 26 C-14.43667969 26.16242188 -13.87335938 26.32484375 -13.29296875 26.4921875 C-10.89553131 27.02313617 -8.76477875 27.13310671 -6.3125 27.125 C-5.52488281 27.12757812 -4.73726562 27.13015625 -3.92578125 27.1328125 C-1.99235086 27.21127778 -1.99235086 27.21127778 -1 26 C-0.42591498 23.61253899 -0.42591498 23.61253899 -1 21 C-3.57996322 18.95636101 -3.57996322 18.95636101 -6.875 17.375 C-12.8210399 14.26844015 -12.8210399 14.26844015 -15 11 C-14.92612176 6.93669692 -14.60064337 4.73203411 -12 1.5625 C-7.97540709 -0.53364214 -4.46046461 -0.68622533 0 0 Z " fill="#4E4E5D" transform="translate(1186,1312)"/>
<path d="M0 0 C1.29550781 -0.02126953 1.29550781 -0.02126953 2.6171875 -0.04296875 C5.2491288 0.19890748 6.86480544 0.85766459 9.125 2.1875 C8.795 3.5075 8.465 4.8275 8.125 6.1875 C7.444375 6.0225 6.76375 5.8575 6.0625 5.6875 C1.12460198 4.84700672 -2.42632481 4.24271183 -6.75 7.0625 C-9.0283479 9.3408479 -9.81887189 10.23992542 -10.0078125 13.4296875 C-10.00523438 14.29851562 -10.00265625 15.16734375 -10 16.0625 C-10.00257812 16.92617187 -10.00515625 17.78984375 -10.0078125 18.6796875 C-9.83522828 22.02168064 -9.83522828 22.02168064 -8.875 25.1875 C-6.06757706 27.13915147 -3.74295805 27.43843757 -0.375 27.375 C0.3778125 27.36855469 1.130625 27.36210938 1.90625 27.35546875 C4.08490143 27.19053563 6.02704811 26.78350906 8.125 26.1875 C8.455 27.5075 8.785 28.8275 9.125 30.1875 C4.32854753 33.00231952 -0.46200318 32.8081484 -5.875 32.1875 C-10.28324285 30.18375325 -12.95025853 27.60191085 -15.1796875 23.24609375 C-16.53741283 19.22631145 -16.55609799 15.34976552 -15.875 11.1875 C-12.5076008 4.45270159 -7.58602206 0.05627613 0 0 Z " fill="#4D4D5C" transform="translate(1261.875,1311.8125)"/>
<path d="M0 0 C3.63326668 0.60554445 4.74144325 1.6558915 7 4.5 C8.59777918 7.69555836 8.37410964 11.02336041 8 14.5 C5.75 20.125 5.75 20.125 3 21.5 C-0.67179103 21.97892926 -2.35633954 21.97427613 -5.375 19.75 C-7.80733893 14.88532215 -7.99789291 9.83432459 -7 4.5 C-4.68500207 1.56211068 -3.72575937 0.62095989 0 0 Z " fill="#FAFAFB" transform="translate(1354,1318.5)"/>
<path d="M0 0 C14.98811887 4.37408367 27.8457282 14.4672378 40 24 C40 24.33 40 24.66 40 25 C27.00752127 25 14.16707327 16.68270736 5 8 C0 2.85193622 0 2.85193622 0 0 Z " fill="#F5F5F6" transform="translate(1246,655)"/>
<path d="M0 0 C1.65 0 3.3 0 5 0 C7.64 4.95 10.28 9.9 13 15 C13.59167969 13.9171875 14.18335938 12.834375 14.79296875 11.71875 C15.59016043 10.31194115 16.38839186 8.90572113 17.1875 7.5 C17.57486328 6.78457031 17.96222656 6.06914063 18.36132812 5.33203125 C19.4735531 3.40172344 20.51509572 1.66207708 22 0 C24.80078125 -0.46875 24.80078125 -0.46875 27 0 C25.91129657 3.08168511 24.56440183 5.82037493 22.87109375 8.6015625 C18.17677708 16.32684774 14.50391945 22.63399927 15 32 C13.68 32 12.36 32 11 32 C11.04382812 31.34257813 11.08765625 30.68515625 11.1328125 30.0078125 C11.10479728 19.6701965 6.17878222 12.22274446 0.90209961 3.68896484 C0 2 0 2 0 0 Z " fill="#4A4A59" transform="translate(1553,1312)"/>
<path d="M0 0 C4.62 0 9.24 0 14 0 C14 1.32 14 2.64 14 4 C10.7 4 7.4 4 4 4 C4 5.98 4 7.96 4 10 C4.886875 9.9175 5.77375 9.835 6.6875 9.75 C10.72466718 10.05469186 12.13864711 11.22040005 15 14 C16.7591705 17.51834101 15.9386806 21.27832974 15 25 C13 27.5625 13 27.5625 10 29 C6.96681985 29.29976152 4.03550352 29.23807871 1 29 C0.34 27.68 -0.32 26.36 -1 25 C2.38711375 23.95781115 5.47649693 24 9 24 C10.40432936 22.82281015 10.40432936 22.82281015 10.125 19.5 C10.40432936 16.17718985 10.40432936 16.17718985 9 15 C5.99668982 14.85806663 3.00782866 14.95763622 0 15 C0 10.05 0 5.1 0 0 Z " fill="#4C4C5B" transform="translate(1387,1315)"/>
<path d="M0 0 C6.93 0 13.86 0 21 0 C21 1.32 21 2.64 21 4 C18.36 4 15.72 4 13 4 C13 13.24 13 22.48 13 32 C11.68 32 10.36 32 9 32 C9 22.76 9 13.52 9 4 C6.03 4 3.06 4 0 4 C0 2.68 0 1.36 0 0 Z " fill="#4A4A59" transform="translate(1479,1312)"/>
<path d="M0 0 C0.66 0.33 1.32 0.66 2 1 C-9.59553589 13.49261173 -24.28756374 22.54813174 -40 29 C-39.67578761 26.10160492 -39.1737021 25.14875053 -36.92138672 23.2199707 C-35.56424561 22.33184692 -35.56424561 22.33184692 -34.1796875 21.42578125 C-33.17566895 20.7618335 -32.17165039 20.09788574 -31.13720703 19.41381836 C-29.52241455 18.37366577 -29.52241455 18.37366577 -27.875 17.3125 C-26.24667236 16.24817749 -26.24667236 16.24817749 -24.58544922 15.16235352 C-21.40091931 13.09110878 -18.20429847 11.0405022 -15 9 C-14.15115234 8.45891602 -13.30230469 7.91783203 -12.42773438 7.36035156 C-10.33575078 6.03745331 -8.23518938 4.73110987 -6.125 3.4375 C-5.52026855 3.06214111 -4.91553711 2.68678223 -4.29248047 2.30004883 C-2.89891414 1.46755797 -1.45363537 0.72250422 0 0 Z " fill="#F1F1F2" transform="translate(1389,693)"/>
<path d="M0 0 C1.65 0 3.3 0 5 0 C5 10.56 5 21.12 5 32 C3.35 32 1.7 32 0 32 C0 21.44 0 10.88 0 0 Z " fill="#5D5D6B" transform="translate(1468,1312)"/>
<path d="M0 0 C2.64 0 5.28 0 8 0 C8 9.57 8 19.14 8 29 C6.68 29 5.36 29 4 29 C4 20.75 4 12.5 4 4 C2.68 4 1.36 4 0 4 C0 2.68 0 1.36 0 0 Z " fill="#474756" transform="translate(1370,1315)"/>
<path d="M0 0 C1.32 0 2.64 0 4 0 C4 10.56 4 21.12 4 32 C2.68 32 1.36 32 0 32 C0 21.44 0 10.88 0 0 Z " fill="#424252" transform="translate(1198,1312)"/>
<path d="M0 0 C-9.89412108 8.20428357 -23.45669097 11.46266304 -36 11 C-33.18149844 8.70071738 -30.67417781 7.35021426 -27.2265625 6.2109375 C-26.3190625 5.90929687 -25.4115625 5.60765625 -24.4765625 5.296875 C-23.53554687 4.99265625 -22.59453125 4.6884375 -21.625 4.375 C-20.22507812 3.90707031 -20.22507812 3.90707031 -18.796875 3.4296875 C-12.50454786 1.36195394 -6.67769105 -0.19640268 0 0 Z " fill="#EBEBEC" transform="translate(1594,791)"/>
<path d="M0 0 C-5.68530389 4.76444481 -13.65899109 6.59521694 -21 6 C-21.33 5.34 -21.66 4.68 -22 4 C-19.64856824 3.32210976 -17.29461376 2.65759253 -14.9375 2 C-13.95233398 1.71382812 -13.95233398 1.71382812 -12.94726562 1.421875 C-8.5325982 0.20403571 -4.62058323 -0.19227394 0 0 Z " fill="#E6E6E8" transform="translate(1494,721)"/>
</svg>
